<svg id="Group_3" data-name="Group 3" xmlns="http://www.w3.org/2000/svg" width="796.953" height="534.613" viewBox="0 0 796.953 534.613">
  <rect id="Rectangle_6" data-name="Rectangle 6" width="751.196" height="1.617" transform="translate(22.257 517.755)" fill="#3f3d56"/>
  <rect id="Rectangle_7" data-name="Rectangle 7" width="1.617" height="751.196" transform="translate(80.712 225.854) rotate(-67.078)" fill="#3f3d56"/>
  <rect id="Rectangle_8" data-name="Rectangle 8" width="751.196" height="1.617" transform="translate(22.257 224.231)" fill="#3f3d56"/>
  <path id="Path_37" data-name="Path 37" d="M817.154,388.311a260.426,260.426,0,0,1-75.791,184.451q-3.991,4.015-8.159,7.844-5.021,4.633-10.3,8.984c-.671.558-1.342,1.108-2.021,1.65a253.682,253.682,0,0,1-44.926,29.134c-.946.477-1.892.954-2.846,1.423-1.512.744-3.04,1.472-4.569,2.183a251.623,251.623,0,0,1-180.522,12.25C383.651,603.837,307.731,505.1,307.731,388.311c0-143.132,114.038-259.159,254.711-259.159S817.154,245.18,817.154,388.311Z" transform="translate(-145.586 -128.906)" fill="#1a535c"/>
  <path id="Path_38" data-name="Path 38" d="M670.12,366.859l.2-.008-.8-1.751a48.907,48.907,0,0,0-3.274-7.189l-23.4-51.371a9.253,9.253,0,0,0-8.575-5.416l-29.63.494a9.253,9.253,0,0,0-8.625,6.328L577.4,363.891a48.838,48.838,0,0,0-1.593,4.786l-.632,1.9.148-.006a49.205,49.205,0,1,0,94.8-3.711Z" transform="translate(-196.552 -161.82)" fill="#3f3d56"/>
  <rect id="Rectangle_9" data-name="Rectangle 9" width="51.815" height="1.07" transform="translate(409.023 203.327) rotate(-79.634)" fill="#1a535c"/>
  <rect id="Rectangle_10" data-name="Rectangle 10" width="1.07" height="51.815" transform="translate(428.507 152.402) rotate(-12.264)" fill="#1a535c"/>
  <path id="Path_39" data-name="Path 39" d="M607.655,270.559l37.968-.633a1.07,1.07,0,1,1,.036,2.139l-37.968.633a1.07,1.07,0,1,1-.036-2.139Z" transform="translate(-202.787 -155.849)" fill="#3f3d56"/>
  <path id="Path_40" data-name="Path 40" d="M608.151,280.474l37.968-.633a1.07,1.07,0,1,1,.036,2.139l-37.968.633a1.07,1.07,0,1,1-.036-2.139Z" transform="translate(-202.882 -157.747)" fill="#3f3d56"/>
  <path id="Path_41" data-name="Path 41" d="M608.647,290.388l37.968-.633a1.07,1.07,0,0,1,.036,2.139l-37.968.633a1.07,1.07,0,1,1-.036-2.139Z" transform="translate(-202.977 -159.644)" fill="#3f3d56"/>
  <path id="Path_42" data-name="Path 42" d="M628.033,260.883c-7.531.125-13.566,4.425-13.48,9.6l27.273-.454C641.739,264.853,635.564,260.757,628.033,260.883Z" transform="translate(-204.309 -154.118)" fill="#3f3d56"/>
  <path id="Path_43" data-name="Path 43" d="M631.168,389.613a6.59,6.59,0,0,1,4,1.709c.282.234.559.479.837.724a8.353,8.353,0,0,0,3.151,2.062c2.613.713,5.193-1.353,7.37-3.469l.746.767c-2.394,2.327-5.263,4.589-8.4,3.734a9.269,9.269,0,0,1-3.578-2.292c-.27-.238-.539-.476-.812-.7-.894-.741-2.62-1.895-4.155-1.3a5.21,5.21,0,0,0-1.665,1.285,9.95,9.95,0,0,1-1.156,1.041,5.238,5.238,0,0,1-5.8.173,10.347,10.347,0,0,1-.909-.681,3.791,3.791,0,0,0-1.717-.978c-.909-.128-1.735.521-2.611,1.208a5.531,5.531,0,0,1-3.027,1.5l-.116,0c-2.132.035-3.484-2.1-4.32-3.717l.951-.49c1.136,2.2,2.232,3.208,3.429,3.135a4.7,4.7,0,0,0,2.423-1.277c1.012-.794,2.06-1.615,3.418-1.426a4.626,4.626,0,0,1,2.243,1.206,9.44,9.44,0,0,0,.814.612,4.2,4.2,0,0,0,4.6-.137,9.033,9.033,0,0,0,1.03-.933,6.077,6.077,0,0,1,2.033-1.525A3.517,3.517,0,0,1,631.168,389.613Z" transform="translate(-203.247 -178.756)" fill="#1a535c"/>
  <rect id="Rectangle_11" data-name="Rectangle 11" width="1.112" height="106.722" transform="translate(423.819)" fill="#3f3d56"/>
  <path id="Path_44" data-name="Path 44" d="M1038.754,345.645c-6.778,25.055-29.994,40.572-29.994,40.572s-12.227-25.105-5.449-50.16,29.994-40.572,29.994-40.572S1045.532,320.59,1038.754,345.645Z" transform="translate(-278.323 -160.741)" fill="#1a535c"/>
  <path id="Path_45" data-name="Path 45" d="M970.888,345.645c6.778,25.055,29.994,40.572,29.994,40.572s12.227-25.105,5.449-50.16-29.994-40.572-29.994-40.572S964.11,320.59,970.888,345.645Z" transform="translate(-272.117 -160.741)" fill="#1a535c"/>
  <path id="Path_46" data-name="Path 46" d="M972.688,346.213c18.6,18.1,20.87,45.937,20.87,45.937s-27.883-1.522-46.481-19.627-20.87-45.937-20.87-45.937S954.089,328.108,972.688,346.213Z" transform="translate(-263.957 -166.693)" fill="#3f3d56"/>
  <path id="Path_47" data-name="Path 47" d="M1030.37,346.213c-18.6,18.1-20.87,45.937-20.87,45.937s27.883-1.522,46.481-19.627,20.87-45.937,20.87-45.937S1048.969,328.108,1030.37,346.213Z" transform="translate(-279.899 -166.693)" fill="#3f3d56"/>
  <path id="Path_48" data-name="Path 48" d="M219.754,707.645c-6.778,25.055-29.994,40.572-29.994,40.572s-12.227-25.105-5.449-50.16S214.3,657.485,214.3,657.485,226.532,682.59,219.754,707.645Z" transform="translate(-121.572 -230.025)" fill="#1a535c"/>
  <path id="Path_49" data-name="Path 49" d="M151.888,707.645c6.778,25.055,29.994,40.572,29.994,40.572s12.227-25.105,5.449-50.16-29.994-40.572-29.994-40.572S145.11,682.59,151.888,707.645Z" transform="translate(-115.367 -230.025)" fill="#1a535c"/>
  <path id="Path_50" data-name="Path 50" d="M153.688,708.213c18.6,18.105,20.87,45.937,20.87,45.937s-27.883-1.522-46.481-19.627-20.87-45.937-20.87-45.937S135.089,690.108,153.688,708.213Z" transform="translate(-107.207 -235.977)" fill="#3f3d56"/>
  <path id="Path_51" data-name="Path 51" d="M211.37,708.213c-18.6,18.105-20.87,45.937-20.87,45.937s27.883-1.522,46.481-19.627,20.87-45.937,20.87-45.937S229.969,690.108,211.37,708.213Z" transform="translate(-123.148 -235.977)" fill="#3f3d56"/>
  <circle id="Ellipse_11" data-name="Ellipse 11" cx="15.553" cy="15.553" r="15.553" transform="translate(526.49 215.053)" fill="#2f2e41"/>
  <path id="Path_52" data-name="Path 52" d="M756.146,402.112a15.552,15.552,0,0,1,13.885-15.461,15.553,15.553,0,1,0,0,30.922A15.553,15.553,0,0,1,756.146,402.112Z" transform="translate(-230.766 -178.171)" fill="#2f2e41"/>
  <path id="Path_53" data-name="Path 53" d="M758.281,414.036s-2.415,11.109,12.679,15.553Z" transform="translate(-231.79 -183.431)" fill="#1a535c"/>
  <circle id="Ellipse_12" data-name="Ellipse 12" cx="52.214" cy="52.214" r="52.214" transform="translate(496.262 231.822)" fill="#2f2e41"/>
  <path id="Path_54" data-name="Path 54" d="M801.969,695.311c-.671.558-1.342,1.108-2.021,1.65a253.675,253.675,0,0,1-44.926,29.134c-.946.477-1.892.954-2.846,1.423-1.512.744-3.04,1.472-4.569,2.183l-26.765-8.919.307-6.412v-.024l1.164-24.452.4-8.361Z" transform="translate(-224.652 -234.627)" fill="#a0616a"/>
  <path id="Path_55" data-name="Path 55" d="M750.848,735.26c-1.512.744-3.04,1.472-4.569,2.183a248.187,248.187,0,0,1-32.271,12.428,1.8,1.8,0,0,1-.1-.5l5.6-27.388.307.129Z" transform="translate(-223.325 -242.369)" fill="#2f2e41"/>
  <circle id="Ellipse_13" data-name="Ellipse 13" cx="34.577" cy="34.577" r="34.577" transform="translate(500.865 270.277)" fill="#a0616a"/>
  <path id="Path_56" data-name="Path 56" d="M789.237,508.171s5.607,28.036,15.887,34.577l-57.006,67.286-21.494-20.56,15.887-28.036s17.756-10.28,12.149-24.3Z" transform="translate(-225.758 -201.447)" fill="#a0616a"/>
  <path id="Path_57" data-name="Path 57" d="M871.265,609.873a259.46,259.46,0,0,1-35.352,44.279c-.574-12.533-1.819-22.867-4.261-25.924a.025.025,0,0,1-.016-.008l-29.894-9.339s6.542-61.681,22.431-64.478c0,0,2.3.469,5.887,1.552,11.547,3.477,36.339,13.277,39.9,33.953a114.763,114.763,0,0,1,1.3,19.964Z" transform="translate(-240.135 -210.296)" fill="#a0616a"/>
  <path id="Path_58" data-name="Path 58" d="M687.5,574.046s-28.036-.935-45.792,21.494-60.744,39.25-60.744,39.25L473.489,676.844s-19.625-34.578-31.774-22.429,22.429,42.988,38.316,39.25,112.143-32.708,112.143-32.708L668.8,626.379Z" transform="translate(-170.743 -214.054)" fill="#a0616a"/>
  <path id="Path_59" data-name="Path 59" d="M813.109,627.038l-3.9,33.767q-5.021,4.633-10.3,8.984c-.671.558-1.342,1.108-2.021,1.65-26.983-8.272-69.265-7.35-77.634-7.067-.954.024-1.472.049-1.472.049l-.93-19.625c-8.967-2.984-11.911-9.509-11.992-16.69-.137-13.019,9.186-28.172,9.186-28.172,1.674-1.674,14.183-25.39,16.771-30.307.3-.574.469-.889.469-.889l11.215-2.8s-.032.089-.1.251c-1,2.806-9.719,28.188,5.288,29.069,14.765.873,46.883-40.592,51.306-46.406l.509-.671,12.153,6.542c-.049.016-.1.024-.146.04-7.423,2.062-14.3,19.94-14.3,19.94-19.382,34.156,15.024,51.9,15.873,52.325A.025.025,0,0,0,813.109,627.038Z" transform="translate(-221.593 -209.105)" fill="#d0cde1"/>
  <path id="Path_60" data-name="Path 60" d="M763.82,455.666c-18.407,0-33.328,8.7-33.328,19.441,0,4.8,3,9.2,7.95,12.587l6.416-4.649-1.745,7.283c.724.335,1.463.66,2.234.96l9.585-11.182v13.738a55.952,55.952,0,0,0,8.887.7c18.407,0,33.328-8.7,33.328-19.441S782.226,455.666,763.82,455.666Z" transform="translate(-226.499 -191.398)" fill="#2f2e41"/>
  <circle id="Ellipse_14" data-name="Ellipse 14" cx="15.553" cy="15.553" r="15.553" transform="translate(590.038 239.35)" fill="#2f2e41"/>
  <path id="Path_61" data-name="Path 61" d="M834.735,432.16A15.552,15.552,0,0,1,848.62,416.7a15.71,15.71,0,0,0-1.664-.092,15.553,15.553,0,1,0,1.666,31.014A15.553,15.553,0,0,1,834.735,432.16Z" transform="translate(-245.808 -183.923)" fill="#2f2e41"/>
  <path id="Path_62" data-name="Path 62" d="M836.87,444.085s-2.416,11.109,12.679,15.553Z" transform="translate(-246.832 -189.182)" fill="#1a535c"/>
  <ellipse id="Ellipse_15" data-name="Ellipse 15" cx="2.7" cy="6.074" rx="2.7" ry="6.074" transform="translate(568.722 295.977)" fill="#a0616a"/>
  <path id="Path_63" data-name="Path 63" d="M432.5,521.571,391.519,531.5l-.133.032-4.454,4.033-1.282,1.159-2.748-.5-4.866-.879,3.391-11.443.636-21.827-2.331-13.351,12.927-8.9S417.875,478.341,432.5,521.571Z" transform="translate(-159.041 -196.021)" fill="#d0cde1"/>
  <path id="Path_64" data-name="Path 64" d="M391.519,531.5c-.555,1.185.608.4-.028,1.621l-5.934,1.907-2.657,1.2-4.866-.879,3.391-11.443.636-21.827-2.331-13.351,12.927-8.9S406.531,499.474,391.519,531.5Z" transform="translate(-159.041 -196.022)" opacity="0.1"/>
  <path id="Path_65" data-name="Path 65" d="M482.509,492.667s-53.826,25.006-75.654,28.82-19.92,25.642-19.92,25.642L509.21,528.057S504.972,508.349,482.509,492.667Z" transform="translate(-160.737 -198.48)" fill="#d0cde1"/>
  <path id="Path_66" data-name="Path 66" d="M376.474,487.146s9.324,22.675-1.06,50.859l12.079,5.51,4.662-5.51.106-.53-12.821-1.166s10.6-28.4,1.907-48.1C381.348,488.206,379.441,483.967,376.474,487.146Z" transform="translate(-158.54 -197.197)" fill="#1a535c"/>
  <path id="Path_67" data-name="Path 67" d="M554.245,661.753c-47.681-10.6-92.077,11.337-92.077,11.337l-.121-.108L444.367,657.2,375.283,544.458l16.847.106c46.833-27.973,112.739-24.158,112.739-24.158C533.266,552.617,554.245,661.753,554.245,661.753Z" transform="translate(-158.514 -203.755)" fill="#3f3d56"/>
  <path id="Path_68" data-name="Path 68" d="M462.047,678.716l-17.68-15.785L375.283,550.192l16.847.106S459.278,638.982,462.047,678.716Z" transform="translate(-158.514 -209.49)" opacity="0.1"/>
  <ellipse id="Ellipse_16" data-name="Ellipse 16" cx="27.337" cy="17.377" rx="27.337" ry="17.377" transform="translate(274.967 356.051) rotate(-17.052)" fill="#d0cde1"/>
  <circle id="Ellipse_17" data-name="Ellipse 17" cx="15.364" cy="15.364" r="15.364" transform="translate(7.11 208.744)" fill="#3f3d56"/>
  <circle id="Ellipse_18" data-name="Ellipse 18" cx="15.364" cy="15.364" r="15.364" transform="translate(757.498 503.886)" fill="#3f3d56"/>
  <circle id="Ellipse_19" data-name="Ellipse 19" cx="12.129" cy="12.129" r="12.129" transform="translate(77.459 213.596)" fill="#1a535c"/>
  <circle id="Ellipse_20" data-name="Ellipse 20" cx="12.129" cy="12.129" r="12.129" transform="translate(760.732 213.596)" fill="#1a535c"/>
  <circle id="Ellipse_21" data-name="Ellipse 21" cx="12.129" cy="12.129" r="12.129" transform="translate(10.345 505.503)" fill="#1a535c"/>
</svg>
