<svg xmlns="http://www.w3.org/2000/svg" width="279" height="242" viewBox="0 0 279 242">
  <g id="ending" transform="translate(8.812)">
    <g id="Group_2" data-name="Group 2" transform="translate(0 0)">
      <ellipse id="Ellipse_3" data-name="Ellipse 3" cx="64.036" cy="8.035" rx="64.036" ry="8.035" transform="translate(60.08 165.454)" fill="#3f3d56"/>
      <path id="Path_5" data-name="Path 5" d="M330.724,380.511l-24.755,11.716,21.909-16.383A123.641,123.641,0,0,0,315.916,360.1L208.555,386.787l96.977-36.993A123.609,123.609,0,0,0,291.45,339.06l-163.592,26.35a122.6,122.6,0,0,0-26.851,76.512H347.257a122.537,122.537,0,0,0-16.533-61.412Z" transform="translate(-98.285 -275.727)" fill="#f2f2f2"/>
      <path id="Path_6" data-name="Path 6" d="M364.841,270.508A123.211,123.211,0,0,0,216.29,302.44C254.965,293.966,322.3,279.3,364.841,270.508Z" transform="translate(-185.065 -214.782)" fill="#f2f2f2"/>
      <circle id="Ellipse_4" data-name="Ellipse 4" cx="3.689" cy="3.689" r="3.689" transform="translate(200.306 60.189)" fill="#1a535c" opacity="0.4"/>
      <circle id="Ellipse_5" data-name="Ellipse 5" cx="2.588" cy="2.588" r="2.588" transform="translate(194.58 63.052)" fill="#1a535c" opacity="0.4"/>
      <circle id="Ellipse_6" data-name="Ellipse 6" cx="7.726" cy="7.726" r="7.726" transform="translate(21.635 65.927)" fill="#1a535c" opacity="0.4"/>
      <circle id="Ellipse_7" data-name="Ellipse 7" cx="5.42" cy="5.42" r="5.42" transform="translate(9.642 71.923)" fill="#1a535c" opacity="0.4"/>
      <rect id="Rectangle_4" data-name="Rectangle 4" width="252.188" height="0.494" transform="translate(0 165.948)" fill="#2f2e41"/>
      <path id="Path_7" data-name="Path 7" d="M934.641,665.273,915,636.1s29.745,10.384,26.369,29.175Z" transform="translate(-711.025 -499.324)" fill="#3f3d56"/>
      <path id="Path_8" data-name="Path 8" d="M976.261,665.273,995.9,636.1s-29.745,10.384-26.369,29.175Z" transform="translate(-751.874 -499.324)" fill="#1a535c"/>
      <path id="Path_9" data-name="Path 9" d="M190.356,192.846c0-1.606-2.29-2.908-5.116-2.908l-.167,0c-.852-2.613-4.881-4.591-9.724-4.591-4.12,0-7.651,1.432-9.138,3.469a12.958,12.958,0,0,0-3.367-.431c-4.332,0-7.844,2-7.844,4.46,0,2.237,2.9,4.09,6.676,4.41a71.913,71.913,0,0,0,11.854.825c8.183,0,14.17-1.561,14.321-2.734C189.35,194.84,190.356,193.91,190.356,192.846Z" transform="translate(-138.929 -160.02)" fill="#f2f2f2"/>
      <path id="Path_10" data-name="Path 10" d="M690.356,197.846c0-1.606-2.29-2.908-5.116-2.908l-.167,0c-.852-2.613-4.881-4.591-9.724-4.591-4.12,0-7.651,1.432-9.138,3.469a12.955,12.955,0,0,0-3.367-.431c-4.332,0-7.844,2-7.844,4.46,0,2.237,2.9,4.09,6.676,4.41a71.916,71.916,0,0,0,11.854.825c8.183,0,14.17-1.561,14.321-2.734C689.351,199.84,690.356,198.91,690.356,197.846Z" transform="translate(-515.308 -163.783)" fill="#f2f2f2"/>
      <path id="Path_11" data-name="Path 11" d="M888.058,96.062c0-2.819-4.02-5.105-8.979-5.105-.1,0-.2,0-.293,0-1.5-4.586-8.568-8.059-17.068-8.059-7.232,0-13.43,2.514-16.04,6.089a22.743,22.743,0,0,0-5.91-.757c-7.6,0-13.768,3.5-13.768,7.828,0,3.927,5.087,7.178,11.719,7.741a126.228,126.228,0,0,0,20.807,1.448c14.363,0,24.873-2.74,25.136-4.8C886.294,99.561,888.058,97.929,888.058,96.062Z" transform="translate(-644.029 -82.902)" fill="#f2f2f2"/>
      <path id="Path_12" data-name="Path 12" d="M540.021,345.175c-5.114-8.641-15.232-9.044-15.232-9.044s-9.859-1.261-16.184,11.9c-5.9,12.267-14.031,24.111-1.31,26.982l2.3-7.152,1.423,7.684a49.775,49.775,0,0,0,5.443.093c13.623-.44,26.6.129,26.18-4.76C542.084,364.38,544.942,353.489,540.021,345.175Z" transform="translate(-399.051 -273.497)" fill="#2f2e41"/>
      <path id="Path_13" data-name="Path 13" d="M518.575,665.065a20.17,20.17,0,0,1-.652,2.808c-.32.9-.814,1.732-1.107,2.641-.933,2.9.36,6.129,2.425,8.366a13.652,13.652,0,0,0,6.656,3.952,27.153,27.153,0,0,0,5.72.6c5.316.18,10.77.342,15.807-1.367a27.458,27.458,0,0,0,4.592-2.086,3.439,3.439,0,0,0,1.192-.938,3.28,3.28,0,0,0,.43-1.925c-.011-2.254-.468-4.5-.36-6.747a26.748,26.748,0,0,0,.179-3.736,6.892,6.892,0,0,0-5.267-5.937,14.306,14.306,0,0,0-4.366,0,111.322,111.322,0,0,1-11.363.508c-3.876-.025-7.729-.616-11.586-.678-1.141-.018-1.118.333-1.481,1.437a26.9,26.9,0,0,0-.819,3.1Z" transform="translate(-411.057 -517.712)" fill="#2f2e41"/>
      <path id="Path_14" data-name="Path 14" d="M555.259,439.659a6.767,6.767,0,0,1-.974,2.788c-.674.922-1.774,1.449-2.5,2.332-1.092,1.328-1.155,3.2-1.159,4.918a6.058,6.058,0,0,0,3.21,6.615c3.313,2.233,6.893,4.506,10.888,4.579a5.79,5.79,0,0,0,4.519-1.644,6.783,6.783,0,0,0,1.094-1.952,25.917,25.917,0,0,0,1.835-7.891,9.266,9.266,0,0,0-.349-3.79,35,35,0,0,0-2.115-3.749,8.346,8.346,0,0,1-.8-4.939.532.532,0,0,0-.028-.358.521.521,0,0,0-.43-.174l-7.921-.57a17.23,17.23,0,0,1-2.2-.252c-.427-.087-1.555-.693-1.962-.532C555.611,435.339,555.413,438.85,555.259,439.659Z" transform="translate(-436.74 -347.956)" fill="#ffb8b8"/>
      <path id="Path_15" data-name="Path 15" d="M555.259,439.659a6.767,6.767,0,0,1-.974,2.788c-.674.922-1.774,1.449-2.5,2.332-1.092,1.328-1.155,3.2-1.159,4.918a6.058,6.058,0,0,0,3.21,6.615c3.313,2.233,6.893,4.506,10.888,4.579a5.79,5.79,0,0,0,4.519-1.644,6.783,6.783,0,0,0,1.094-1.952,25.917,25.917,0,0,0,1.835-7.891,9.266,9.266,0,0,0-.349-3.79,35,35,0,0,0-2.115-3.749,8.346,8.346,0,0,1-.8-4.939.532.532,0,0,0-.028-.358.521.521,0,0,0-.43-.174l-7.921-.57a17.23,17.23,0,0,1-2.2-.252c-.427-.087-1.555-.693-1.962-.532C555.611,435.339,555.413,438.85,555.259,439.659Z" transform="translate(-436.74 -347.956)" opacity="0.1"/>
      <circle id="Ellipse_8" data-name="Ellipse 8" cx="11.62" cy="11.62" r="11.62" transform="translate(114.473 69.524)" fill="#ffb8b8"/>
      <path id="Path_16" data-name="Path 16" d="M563.172,492.748a7.128,7.128,0,0,0,2.041,1.631,6.413,6.413,0,0,0,2.55.485c2.095.059,4.365-.325,5.823-1.831,1.878-1.941,1.816-5.072,3.289-7.337a1.633,1.633,0,0,1,.474-.519,1.538,1.538,0,0,1,.807-.186c1.859-.017,3.479,1.189,4.941,2.338a6.508,6.508,0,0,1,1.739,1.772,6,6,0,0,1,.586,1.8,78.9,78.9,0,0,1,1.194,10.769c.129,1.992.258,3.987.248,5.984-.032,6.578-1.56,13.046-3.081,19.446a3.038,3.038,0,0,1-1.214,2.141,2.994,2.994,0,0,1-1.059.259,129.648,129.648,0,0,1-13.1,1.091q-2.566.04-5.131-.124a2.764,2.764,0,0,1-.864-.151,2.437,2.437,0,0,1-.942-.8c-2.371-2.988-2.511-7.12-2.5-10.935q.056-13.991,1-27.959a3.075,3.075,0,0,0-.491-2.307A28.881,28.881,0,0,0,563.172,492.748Z" transform="translate(-443.023 -385.577)" fill="#d0cde1"/>
      <path id="Path_17" data-name="Path 17" d="M511.393,458.936c-.392.71-3.286,2.475-3.845,3.063-3.121,3.29-8.818,3.166-11.672,6.69a10.978,10.978,0,0,0-1.91,4.346c-.543,2.19-.833,4.579.077,6.644.875,1.987,2.717,3.361,3.967,5.136a19.781,19.781,0,0,1,2.582,6.625,15.247,15.247,0,0,1,.707,5.2c-.193,1.992-1.157,3.816-1.727,5.735s-.667,4.2.649,5.712a6.517,6.517,0,0,0,3.933,1.794,45.193,45.193,0,0,0,5.605.488c1.657.073,3.483.087,4.757-.975a4.783,4.783,0,0,0,1.5-3.506,22.633,22.633,0,0,0-.386-3.9c-.177-1.345-.245-2.7-.3-4.057q-.382-9.123-.1-18.257a15.538,15.538,0,0,0-.185-3.789,20.768,20.768,0,0,0-1.97-4.582,17.338,17.338,0,0,1-1.922-9.159C511.368,458.891,512.789,456.408,511.393,458.936Z" transform="translate(-393.705 -365.183)" fill="#1a535c"/>
      <path id="Path_18" data-name="Path 18" d="M619.772,455.732c.6.614,2.629.817,3.39,1.213a11.877,11.877,0,0,0,2.228.771,28.929,28.929,0,0,1,7.828,3.593,4.75,4.75,0,0,1,1.309,1.131,5.182,5.182,0,0,1,.724,2.045,17.4,17.4,0,0,1-.623,11.425l-2.228,7.123c-1.663,5.317-3.337,10.686-3.8,16.237a38.192,38.192,0,0,0,.343,9.222,1.093,1.093,0,0,1-.112.893.88.88,0,0,1-.546.251,5.351,5.351,0,0,1-3.09-.865,34.218,34.218,0,0,0-9.434-3.087,21.932,21.932,0,0,0,2.93-6.04,36.557,36.557,0,0,0,.885-4.154l1.036-5.994a58.918,58.918,0,0,0,.889-6.629,8.3,8.3,0,0,0-.144-2.5,12.121,12.121,0,0,0-.946-2.252,19.241,19.241,0,0,1-1.838-11.492c.294-1.7.866-3.4.627-5.111-.229-1.643.009-2.92-.412-4.545C617.052,450.293,618.647,454.576,619.772,455.732Z" transform="translate(-485.766 -361.731)" fill="#1a535c"/>
      <path id="Path_19" data-name="Path 19" d="M494.752,509.83c-.779,1.616-2.081,2.992-2.524,4.731a10.335,10.335,0,0,0-.22,2.472,11.746,11.746,0,0,0,.367,3.718c.247.767.65,1.473.94,2.225a8.068,8.068,0,0,1,.528,3.3c-.078,1.557-.607,3.067-.648,4.625-.065,2.45,1.068,4.753,2.174,6.94a5.1,5.1,0,0,1,7.416-2.428,1.521,1.521,0,0,0,.334-1.109q.123-4.264.237-8.527c.12-4.4.234-8.851-.778-13.131a12.388,12.388,0,0,0-2.469-5.356c-.686-.789-3.014-2.868-4.14-1.984-.506.4-.388,1.48-.468,2.028A8.6,8.6,0,0,1,494.752,509.83Z" transform="translate(-392.611 -400.706)" fill="#1a535c"/>
      <path id="Path_20" data-name="Path 20" d="M657.011,492.845a11.893,11.893,0,0,1,.4,3.577q.022,3.686-.1,7.37a13.74,13.74,0,0,1-.479,3.732c-.251.791-.64,1.532-.9,2.32-.778,2.362-.353,4.924-.286,7.41a8.418,8.418,0,0,1-.2,2.4c-.411,1.541-1.515,2.786-2.285,4.183a41.106,41.106,0,0,1-2.047,4.05c-.874,1.237-2.387,2.218-3.853,1.838a4.254,4.254,0,0,1-2.446-2.281,11.186,11.186,0,0,1-1.157-7.256c.548-3.017,2.321-5.694,2.96-8.693.878-4.119-.456-8.369-.417-12.58a6.08,6.08,0,0,1,.265-1.95,8.159,8.159,0,0,1,1.721-2.5,31.581,31.581,0,0,0,2.312-3.035c.476-.71,1.123-2.537,1.967-2.689C654.348,488.4,656.544,491.388,657.011,492.845Z" transform="translate(-506.637 -388.377)" fill="#1a535c"/>
      <path id="Path_21" data-name="Path 21" d="M430.939,670.426a11.471,11.471,0,0,0-3.191-.339,7.963,7.963,0,0,0-7.393,9.388,13.373,13.373,0,0,0,1.264,3.455,11.543,11.543,0,0,0,3.427,4.531,13.354,13.354,0,0,0,3.025,1.44l8.25,3.108c1.214.457,2.428.915,3.653,1.339a71.455,71.455,0,0,0,19.081,3.793,20.657,20.657,0,0,0,5.925-.3,1.928,1.928,0,0,0,1.213-.656,2.078,2.078,0,0,0,.271-.9l.508-3.554a2.977,2.977,0,0,0-.043-1.5,2.87,2.87,0,0,0-1.371-1.292c-5.424-3.115-11.757-4.834-16.322-9.109-1.075-1.007-1.974-2.6-3.28-3.286-1.481-.775-3.225-1.218-4.755-1.932C437.856,673.054,434.566,671.259,430.939,670.426Z" transform="translate(-338.579 -524.904)" fill="#2f2e41"/>
      <path id="Path_22" data-name="Path 22" d="M485.627,688.372c2.916.914,15.228,7.244,17.338,9.454-.283.1-9.88-5.276-10.168-5.363a57.981,57.981,0,0,1-7.736-2.726c-.5-.231-3.249-1.318-3.124-1.949C482.077,687.076,485.109,688.209,485.627,688.372Z" transform="translate(-385.03 -538.059)" opacity="0.1"/>
      <path id="Path_23" data-name="Path 23" d="M607.611,764.013a.685.685,0,0,0,.462-.136.714.714,0,0,0,.144-.532q-.007-2.421-.014-4.842a14.882,14.882,0,0,0-4.478-1.08l-7.133-.953c.164.022-1.115,3.072-.919,3.479.346.718,2.987,1.354,3.733,1.693C602,762.819,604.692,764.114,607.611,764.013Z" transform="translate(-470.635 -589.935)" fill="#ffb8b8"/>
      <path id="Path_24" data-name="Path 24" d="M540.122,754.039c-1.347.215-2.85.4-3.722,1.453-1.106,1.329-.635,3.311-.108,4.958a1.607,1.607,0,0,0,1.875,1.341,6.482,6.482,0,0,0,3.608-.464,15.812,15.812,0,0,0,1.4-1.042,8.986,8.986,0,0,1,2.577-1.178,26.063,26.063,0,0,1,5.173-1.066,8.046,8.046,0,0,0,2.038-.359,2.258,2.258,0,0,0,1.435-1.393,3.32,3.32,0,0,0-.753-2.549,10.168,10.168,0,0,0-2.169-2.681c-1.329-1.032-1.987-.24-3.325.421a28.21,28.21,0,0,1-8.031,2.56Z" transform="translate(-425.524 -585.488)" fill="#ffb8b8"/>
      <path id="Path_25" data-name="Path 25" d="M489.679,759.961l-8.551-2.527a11.319,11.319,0,0,0-3.182-.617A3.82,3.82,0,0,0,475.023,758a5.693,5.693,0,0,0-1.018,2.851l-.354,2.158a10.84,10.84,0,0,0-.2,3.314,3.664,3.664,0,0,0,1.7,2.731c1.183.646,2.634.33,3.954.06a43.049,43.049,0,0,1,8.1-.869,6.5,6.5,0,0,0,3-.479,3.747,3.747,0,0,0,1.829-2.986C492.209,762.935,491.594,760.527,489.679,759.961Z" transform="translate(-378.6 -590.196)" fill="#2f2e41"/>
      <path id="Path_26" data-name="Path 26" d="M646.578,755.4a20.767,20.767,0,0,0,3.149-1.2,14.006,14.006,0,0,1,4.7-.518,2.275,2.275,0,0,1,2.68,2.561l.716,5.007a7.858,7.858,0,0,1,.058,2.836,2.668,2.668,0,0,1-1.763,2.062c-1.118.291-2.214-.424-3.27-.893-2.639-1.173-5.706-.873-8.458-1.75a1.9,1.9,0,0,1-1.266-.905,2.06,2.06,0,0,1-.1-.865c.047-1.609-.292-3.807.192-5.345C643.653,755.016,645.34,755.4,646.578,755.4Z" transform="translate(-506.24 -587.842)" fill="#2f2e41"/>
      <path id="Path_27" data-name="Path 27" d="M622.287,661.971a14.85,14.85,0,0,1,5.231-.357,5.514,5.514,0,0,1,5.536,6.223,14.721,14.721,0,0,1-3.2,9.4A8.529,8.529,0,0,1,628.024,679a12.035,12.035,0,0,1-2.38,1.147l-18.476,7.287a119.379,119.379,0,0,1-14.808,5.1,1.154,1.154,0,0,1-1.553-.563,38.28,38.28,0,0,1-4.049-7.407.5.5,0,0,1,.221-.787l13.068-7.509a13.214,13.214,0,0,0,2.66-1.833,6.606,6.606,0,0,0,1.366-1.9c.271-.566.3-1.9.642-2.319s1.5-.442,2.033-.6a18.471,18.471,0,0,0,2.213-.837c2.923-1.308,5.526-3.208,8.329-4.739A21.364,21.364,0,0,1,622.287,661.971Z" transform="translate(-463.853 -518.465)" fill="#2f2e41"/>
      <path id="Path_28" data-name="Path 28" d="M636.976,681.651c-2.245,1.686-5.152,3.236-7.377,4.967-.759.591-13.419,7.708-13.6,8.654,2.076.35,15.3-8.9,17.192-9.825a30.552,30.552,0,0,0,5.231-3.517c.424-.329,2.219-1.319,1-1.687C638.741,680.036,637.481,681.314,636.976,681.651Z" transform="translate(-485.95 -532.538)" opacity="0.1"/>
      <path id="Path_29" data-name="Path 29" d="M479.868,270.6l-10-5.236-13.8,2.142-2.856,12.614,7.109-.273,1.986-4.634v4.558l3.28-.126,1.9-7.378,1.19,7.854,11.662-.238Z" transform="translate(-341.159 -199.752)" fill="#2f2e41"/>
      <rect id="Rectangle_5" data-name="Rectangle 5" width="21.51" height="25.96" transform="translate(114.968 96.72)" fill="#3f3d56"/>
      <path id="Path_30" data-name="Path 30" d="M507.66,558.785a5.194,5.194,0,0,0,1.866,1.856,3.649,3.649,0,0,0,3.208-.086,5.646,5.646,0,0,0,2.315-2.321,11.55,11.55,0,0,0,1.176-6.414c-.136-2.2-.605-4.367-.813-6.562-.151-1.6-.164-3.2-.176-4.8a1.6,1.6,0,0,1,.2-.971,1.907,1.907,0,0,1,1.072-.535c2.193-.651,3.648-2.706,4.691-4.742a8.218,8.218,0,0,0,1.168-4.366,3.428,3.428,0,0,0-2.747-3.209,4.4,4.4,0,0,0-3.313,1.545,14.205,14.205,0,0,0-4.159,8.312,32.187,32.187,0,0,1-.562,4.638c-.9,3.206-3.709,5.172-5.11,8.057C504.933,552.363,505.785,555.972,507.66,558.785Z" transform="translate(-402.904 -416.912)" fill="#ffb8b8"/>
      <path id="Path_31" data-name="Path 31" d="M641.172,517.423a6.06,6.06,0,0,1-3.4,3.265,4.694,4.694,0,0,1-2.954.181,3.276,3.276,0,0,1-2.164-1.936,5.213,5.213,0,0,1-.244-1.454,14.98,14.98,0,0,1,.7-6.41c.3-.779.711-1.518.95-2.318a11.627,11.627,0,0,0,.358-2.829l.258-5.9a3.839,3.839,0,0,0-.088-1.279,4.043,4.043,0,0,0-1.787-1.917,11.749,11.749,0,0,1-4.372-4.64,3.255,3.255,0,0,1-.3-1.922,3.194,3.194,0,0,1,2.592-2.185,5.8,5.8,0,0,1,6.952,4.673c.116.666.114,1.346.182,2.018.144,1.426.6,2.8.88,4.206.7,3.461.336,7.039,1.026,10.5C640.338,512.369,642.513,514.257,641.172,517.423Z" transform="translate(-495.054 -387.8)" fill="#ffb8b8"/>
      <path id="Path_32" data-name="Path 32" d="M141.125,634.3l-.494-.01a114.675,114.675,0,0,1,1.755-16.389c2.138-11.591,5.694-19.2,10.568-22.626l.284.4C141.852,603.679,141.131,634,141.125,634.3Z" transform="translate(-128.113 -468.598)" fill="#2f2e41"/>
      <path id="Path_33" data-name="Path 33" d="M166.125,700.789l-.494-.01c.011-.548.32-13.453,5.4-17.021l.284.4C166.439,687.586,166.128,700.657,166.125,700.789Z" transform="translate(-146.932 -535.201)" fill="#2f2e41"/>
      <circle id="Ellipse_9" data-name="Ellipse 9" cx="2.472" cy="2.472" r="2.472" transform="translate(25.466 122.186)" fill="#1a535c"/>
      <circle id="Ellipse_10" data-name="Ellipse 10" cx="2.472" cy="2.472" r="2.472" transform="translate(24.242 143.449)" fill="#1a535c"/>
      <path id="Path_34" data-name="Path 34" d="M152.978,587.488a10.982,10.982,0,0,1-.746,5.622,10.009,10.009,0,0,1-1.683-10.748A10.982,10.982,0,0,1,152.978,587.488Z" transform="translate(-134.937 -458.875)" fill="#2f2e41"/>
      <path id="Path_35" data-name="Path 35" d="M178.4,621.446a10.982,10.982,0,0,1-5.667.245,10.009,10.009,0,0,1,10.29-3.53A10.983,10.983,0,0,1,178.4,621.446Z" transform="translate(-152.282 -485.624)" fill="#2f2e41"/>
      <path id="Path_36" data-name="Path 36" d="M183.934,700.763a7.7,7.7,0,0,1-3.972.172,7.015,7.015,0,0,1,7.213-2.474A7.7,7.7,0,0,1,183.934,700.763Z" transform="translate(-157.719 -546.112)" fill="#2f2e41"/>
    </g>
    <text id="We_are_here_for_your_Masterful_journey" data-name="We are here for your Masterful journey" transform="translate(-8.812 216)" font-size="12" font-family="OpenSans-Bold, Open Sans" font-weight="700" letter-spacing="0.1em"><tspan x="0" y="0">We are here for your Masterful journey</tspan></text>
    <text id="Have_a_question_" data-name="Have a question?" transform="translate(66.188 238)" font-size="12" font-family="OpenSans-Bold, Open Sans" font-weight="700" letter-spacing="0.1em"><tspan x="0" y="0">Have a question?</tspan></text>
  </g>
</svg>
