<svg id="Group_4" data-name="Group 4" xmlns="http://www.w3.org/2000/svg" width="927" height="632" viewBox="0 0 927 632">
  <path id="Path_69" data-name="Path 69" d="M788.023,480.522l-59.112,33.111,52.316-46.3a350.211,350.211,0,0,0-28.565-44.486L496.3,498.261,727.868,393.716a306.491,306.491,0,0,0-33.626-30.334L303.61,437.849c-41.475,61.383-64.085,137.631-64.116,216.227H827.5C827.476,593.121,813.858,533.253,788.023,480.522Z" transform="translate(-136.5 -149.896)" fill="#f2f2f2"/>
  <path id="Path_70" data-name="Path 70" d="M662.271,350.659C540.568,280.6,394.183,317.844,307.554,440.9,399.9,416.953,560.694,375.5,662.271,350.659Z" transform="translate(-136.5 -158.671)" fill="#f2f2f2"/>
  <path id="Path_71" data-name="Path 71" d="M608.974,361.345c-10.063,35.262-25.494,67.391-56.941,67.391s-55.169-30.231-56.941-67.391c-2.264-47.483,24.768-67.588,56.941-67.391C590.041,294.186,620.917,319.5,608.974,361.345Z" transform="translate(-136.5 -162.638)" fill="#2f2e41"/>
  <rect id="Rectangle_13" data-name="Rectangle 13" width="93.137" height="160.643" transform="translate(368.555 189.742)" fill="#2f2e41"/>
  <path id="Path_72" data-name="Path 72" d="M537.73,424.65s2.979,50.536-3.972,58.762,61.567,15.278,60.574,5.876-13.9-70.515-9.93-83.443S537.73,424.65,537.73,424.65Z" transform="translate(-136.5 -142.671)" fill="#ffb8b8"/>
  <path id="Path_73" data-name="Path 73" d="M537.73,424.65s2.979,50.536-3.972,58.762,61.567,15.278,60.574,5.876-13.9-70.515-9.93-83.443S537.73,424.65,537.73,424.65Z" transform="translate(-136.5 -142.671)" opacity="0.1"/>
  <path id="Path_74" data-name="Path 74" d="M472.2,541.424,436.52,684.216l-1.43,5.752H375.05C398.94,602.446,458,473.384,458,473.384l9.22-2.474Z" transform="translate(-136.5 -130.163)" fill="#1a535c"/>
  <path id="Path_75" data-name="Path 75" d="M472.2,541.424,436.52,684.216l-1.43,5.752H375.05C398.94,602.446,458,473.384,458,473.384l9.22-2.474Z" transform="translate(-136.5 -130.163)" opacity="0.1"/>
  <ellipse id="Ellipse_22" data-name="Ellipse 22" cx="44.685" cy="52.886" rx="44.685" ry="52.886" transform="translate(368.461 193.835)" fill="#ffb8b8"/>
  <path id="Path_76" data-name="Path 76" d="M597.311,465.309s-15.888,17.629-33.762,14.1-25.378-29.251-25.378-29.251l-17.321,15.148s-4.965,42.309,17.874,47.01,55.609,5.876,62.56,0S597.311,465.309,597.311,465.309Z" transform="translate(-136.5 -133.97)" fill="#3f3d56"/>
  <path id="Path_77" data-name="Path 77" d="M651.93,526.694l-2.85,10.959L608.85,692.884H435.71a56.176,56.176,0,0,0,.81-5.752c2.24-22.1.92-77.84.92-81.675,0-4.71,16.87-121.05,20.86-129.288a6.86,6.86,0,0,1,2.37-2.343c4.63-3.148,14.87-6.675,25.91-9.788.01-.012.01-.012.02-.012,6.17-1.775,12.61-3.409,18.45-4.793h.01c5.73-1.361,10.87-2.474,14.63-3.207a51.2,51.2,0,0,1,6.13-1.006c.92,0,1.59,1.29,2.04,3.266,1.51,6.438.93,20.226.93,20.226a32.979,32.979,0,0,0,4.46,4.947,55.639,55.639,0,0,0,12.46,8.794,66.423,66.423,0,0,0,11.82,4.77h.01a74.3,74.3,0,0,0,12.95,2.663,33.836,33.836,0,0,0,10.7-.249h.02c10.53-2.059,14.39-9.8,16.19-15.978.32-1.124.57-2.2.79-3.184,0-.012.01-.035.01-.047.66-3.018.94-5.137,1.64-5.1h.01c1.81.2,24.64,23.363,39.47,38.571,7.04,7.208,12.27,12.652,12.59,12.983Z" transform="translate(-136.5 -133.079)" fill="#1a535c"/>
  <path id="Path_78" data-name="Path 78" d="M649.08,527.174,608.85,682.405H592.54a14.547,14.547,0,0,0,1.79-8.687c-.52-4.332,10.81-48.465,21.72-89.534,9.92-37.316,19.49-72.065,19.49-72.065l9.43,5.279S646.66,521.174,649.08,527.174Z" transform="translate(-136.5 -122.6)" opacity="0.1"/>
  <path id="Path_79" data-name="Path 79" d="M677.75,669.008c-1.96.58-1.75,7.468-1.86,14.581H598.83a15.216,15.216,0,0,0,2.46-9.871c-.51-4.154,7.09-46.986,14.76-88.35,6.03-32.713,12.11-64.514,14.22-75.58.52-2.675.8-4.119.8-4.119l.91.509.02.012,19.91,11.2.02.012s30.78,69.354,20.86,85.805c-9.94,16.451-9.94,16.451-5.97,24.688C670.79,636.106,681.71,667.836,677.75,669.008Z" transform="translate(-136.5 -123.783)" fill="#1a535c"/>
  <ellipse id="Ellipse_23" data-name="Ellipse 23" cx="22.477" cy="26.602" rx="22.477" ry="26.602" transform="translate(393.056 92.3)" fill="#2f2e41"/>
  <path id="Path_80" data-name="Path 80" d="M525.061,275.6c0-13.659,8.743-25.1,20.227-26.467a19.135,19.135,0,0,0-2.246-.135c-12.414,0-22.477,11.91-22.477,26.6s10.063,26.6,22.477,26.6a19.232,19.232,0,0,0,2.248-.134c-11.485-1.367-20.228-12.807-20.229-26.468Z" transform="translate(-136.5 -170.888)" fill="#2f2e41"/>
  <path id="Path_81" data-name="Path 81" d="M535.5,335.912s-.469-3.092-18.825,5.054-29.359,68.265-20.181,103.567c3.7,14.227.69,24.484-4.221,31.661-18.428,26.932-11.174,67.383,15.668,81.233q1.136.586,2.319,1.159l11.472,8.147a71.049,71.049,0,0,1-7.306-51.907A175.844,175.844,0,0,0,516.7,438.36c-.84-4.266-1.794-8.664-2.877-13.152-9.178-38.018-4.714-33.627,27.408-71.645,0,0,18.356,16.293,34.417,24.44s29.828,16.293,18.356,43.449-39.006,51.6-20.65,86.9,20.65,21.724,18.356,35.3h0l-2.294,13.578,13.767-16.293-9.178,21.724s29.828,0,39.006-27.155l4.589,5.431s18.356-38.017-16.061-73.32c0,0-11.472-8.147,4.589-35.3s3.726-85.54-16.924-96.4S535.5,335.912,535.5,335.912Z" transform="translate(-136.5 -155.823)" fill="#2f2e41"/>
  <path id="Path_82" data-name="Path 82" d="M413.147,296.659l-38.231,78.37h8.937v10.577l43.45-88.948Z" transform="translate(0 54.443)" fill="#3f3d56"/>
  <rect id="Rectangle_14" data-name="Rectangle 14" width="155" height="73" transform="translate(757 507)" fill="#f2f2f2"/>
  <rect id="Rectangle_15" data-name="Rectangle 15" width="116" height="11.835" transform="translate(776.5 600.045)" fill="#f2f2f2"/>
  <rect id="Rectangle_16" data-name="Rectangle 16" width="116" height="9.468" transform="translate(776.5 621.348)" fill="#f2f2f2"/>
  <circle id="Ellipse_24" data-name="Ellipse 24" cx="4" cy="4" r="4" transform="translate(12 10)" fill="#1a535c"/>
  <circle id="Ellipse_25" data-name="Ellipse 25" cx="4" cy="4" r="4" transform="translate(23 10)" fill="#1a535c"/>
  <circle id="Ellipse_26" data-name="Ellipse 26" cx="4" cy="4" r="4" transform="translate(34 10)" fill="#1a535c"/>
  <path id="Path_83" data-name="Path 83" d="M1063.5,815h-927V183h927Zm-925-2.367h923V185.367h-923Z" transform="translate(-136.5 -183)" fill="#2f2e41"/>
  <rect id="Rectangle_17" data-name="Rectangle 17" width="925" height="2.367" transform="translate(1 23.773)" fill="#2f2e41"/>
  <rect id="Rectangle_18" data-name="Rectangle 18" width="30" height="4" transform="translate(12 43)" fill="#2f2e41"/>
  <rect id="Rectangle_19" data-name="Rectangle 19" width="30" height="2" transform="translate(12 53)" fill="#2f2e41"/>
  <rect id="Rectangle_20" data-name="Rectangle 20" width="30" height="2" transform="translate(12 63)" fill="#2f2e41"/>
  <path id="Path_84" data-name="Path 84" d="M775.5,241.3h-372V220h372Zm-370-2.367h368V222.367h-368Z" transform="translate(-136.5 -176.21)" fill="#2f2e41"/>
  <path id="Path_85" data-name="Path 85" d="M760.5,232.968c-2.209,0-4-2.12-4-4.734s1.791-4.734,4-4.734,4,2.12,4,4.734S762.708,232.965,760.5,232.968Zm0-7.1a2.4,2.4,0,1,0,2,2.367A2.207,2.207,0,0,0,760.5,225.867Z" transform="translate(-136.5 -175.567)" fill="#2f2e41"/>
  <path id="Path_96" data-name="Path 96" d="M.259.085,2.448-.1l-.5,5.979-2.189.183Z" transform="translate(625.123 56.223) rotate(-45.868)" fill="#2f2e41"/>
  <path id="Path_86" data-name="Path 86" d="M999.5,241.3h-20V220h20Zm-18-2.367h16V222.367h-16Z" transform="translate(-136.5 -176.21)" fill="#2f2e41"/>
  <path id="Path_87" data-name="Path 87" d="M1024.5,241.3h-20V220h20Zm-18-2.367h16V222.367h-16Z" transform="translate(-136.5 -176.21)" fill="#2f2e41"/>
  <path id="Path_88" data-name="Path 88" d="M1049.5,241.3h-20V220h20Zm-18-2.367h16V222.367h-16Z" transform="translate(-136.5 -176.21)" fill="#2f2e41"/>
  <rect id="Rectangle_22" data-name="Rectangle 22" width="18" height="18" transform="translate(665 575)" fill="#ff6584"/>
  <rect id="Rectangle_23" data-name="Rectangle 23" width="18" height="18" transform="translate(690 575)" fill="#f2f2f2"/>
  <rect id="Rectangle_24" data-name="Rectangle 24" width="18" height="18" transform="translate(715 575)" fill="#f2f2f2"/>
  <path id="Path_89" data-name="Path 89" d="M868.5,728.206h-682V269h682Zm-680-2.367h678V271.367h-678Z" transform="translate(-136.5 -167.217)" fill="#2f2e41"/>
  <path id="Path_90" data-name="Path 90" d="M290.114,621.426v11.12l-15.607-11.273a.475.475,0,0,0-.549,0,.676.676,0,0,0-.276.561V646.2a.676.676,0,0,0,.276.561.475.475,0,0,0,.549,0l15.607-11.273V646.6a.3.3,0,0,0,.273.323h4.841a.3.3,0,0,0,.273-.323V621.426a.3.3,0,0,0-.273-.323h-4.841a.3.3,0,0,0-.273.323Z" transform="translate(-136.5 -102.599)" fill="#3f3d56"/>
  <path id="Path_91" data-name="Path 91" d="M248.493,646.925h-4.35a.508.508,0,0,1-.389-.187.713.713,0,0,1-.163-.458V621.749a.713.713,0,0,1,.163-.458.508.508,0,0,1,.389-.187h4.35a.508.508,0,0,1,.389.187.713.713,0,0,1,.163.458V646.28a.713.713,0,0,1-.163.458A.508.508,0,0,1,248.493,646.925Zm12,0h-4.35a.508.508,0,0,1-.389-.187.713.713,0,0,1-.163-.458V621.749a.712.712,0,0,1,.163-.458.508.508,0,0,1,.389-.187h4.35a.508.508,0,0,1,.389.187.713.713,0,0,1,.163.458V646.28a.713.713,0,0,1-.163.458.508.508,0,0,1-.389.187Z" transform="translate(-136.5 -102.599)" fill="#3f3d56"/>
  <path id="Path_92" data-name="Path 92" d="M215.5,621.772v24.483a.669.669,0,0,0,.253.572.463.463,0,0,0,.545.009l16.4-12.241a.769.769,0,0,0,0-1.154L216.3,621.2a.459.459,0,0,0-.545,0,.662.662,0,0,0-.253.571Z" transform="translate(-136.5 -102.598)" fill="#1a535c"/>
  <rect id="Rectangle_25" data-name="Rectangle 25" width="617" height="4.734" transform="translate(82.5 501.813)" fill="#2f2e41"/>
  <rect id="Rectangle_26" data-name="Rectangle 26" width="107.5" height="4.734" transform="translate(82.5 501.813)" fill="#1a535c"/>
  <rect id="Rectangle_27" data-name="Rectangle 27" width="283" height="13" transform="translate(51 577)" fill="#f2f2f2"/>
  <rect id="Rectangle_28" data-name="Rectangle 28" width="62" height="13" transform="translate(51 606)" fill="#f2f2f2"/>
  <rect id="Rectangle_29" data-name="Rectangle 29" width="155" height="71" transform="translate(757 127)" fill="#f2f2f2"/>
  <rect id="Rectangle_30" data-name="Rectangle 30" width="116" height="11.835" transform="translate(776.5 218.951)" fill="#f2f2f2"/>
  <rect id="Rectangle_31" data-name="Rectangle 31" width="116" height="11.835" transform="translate(776.5 240.255)" fill="#f2f2f2"/>
  <rect id="Rectangle_32" data-name="Rectangle 32" width="116" height="11.835" transform="translate(776.5 261.558)" fill="#f2f2f2"/>
  <rect id="Rectangle_33" data-name="Rectangle 33" width="155" height="71" transform="translate(757 318)" fill="#f2f2f2"/>
  <rect id="Rectangle_34" data-name="Rectangle 34" width="116" height="11.835" transform="translate(776.5 409.498)" fill="#f2f2f2"/>
  <rect id="Rectangle_35" data-name="Rectangle 35" width="116" height="11.835" transform="translate(776.5 430.802)" fill="#f2f2f2"/>
  <rect id="Rectangle_36" data-name="Rectangle 36" width="116" height="11.835" transform="translate(776.5 452.105)" fill="#f2f2f2"/>
  <path id="Path_93" data-name="Path 93" d="M798.363,613.4l-2.064-1.845c-7.34-6.679-12.18-11.006-12.621-16.975a9.626,9.626,0,0,1,1.632-6.351,6.915,6.915,0,0,1,4.986-3.04,7.184,7.184,0,0,1,6.18,2.684,7.7,7.7,0,0,1,5.693-3.914,6.485,6.485,0,0,1,5.356,1.969,9.139,9.139,0,0,1,2.539,5.919c.441,5.969-3.69,11.225-9.939,19.311Z" transform="translate(-136.5 -109.423)" fill="#ff6584"/>
  <path id="Path_94" data-name="Path 94" d="M822.791,587.794l-1.131-2.753c-3.977-9.9-6.629-16.352-4.732-21.907a8.058,8.058,0,0,1,3.89-4.782,6.181,6.181,0,0,1,5.609-.029,8.839,8.839,0,0,1,4.477,5.713,6.753,6.753,0,0,1,6.574-.428,7.937,7.937,0,0,1,4.017,4.633,9.974,9.974,0,0,1-.009,6.638c-1.9,5.555-7.594,8.018-16.264,11.865Z" transform="translate(-136.5 -114.241)" fill="#ff6584"/>
  <path id="Path_95" data-name="Path 95" d="M812.791,654.794l-1.131-2.753c-3.977-9.9-6.629-16.352-4.732-21.907a8.057,8.057,0,0,1,3.89-4.782,6.181,6.181,0,0,1,5.609-.029,8.838,8.838,0,0,1,4.477,5.713,6.753,6.753,0,0,1,6.574-.428,7.938,7.938,0,0,1,4.017,4.633,9.974,9.974,0,0,1-.009,6.638c-1.9,5.555-7.594,8.018-16.264,11.865Z" transform="translate(-136.5 -101.945)" fill="#ff6584"/>
</svg>
